<svg width="45" height="45" viewBox="0 0 45 45" fill="none" xmlns="http://www.w3.org/2000/svg">
<path d="M15.925 6.275C15.475 7.875 15.25 9.55 15.25 11.25C15.25 21.45 23.55 29.75 33.75 29.75C35.45 29.75 37.125 29.525 38.725 29.075C36.125 35.475 29.825 40 22.5 40C12.85 40 5 32.15 5 22.5C5 15.175 9.525 8.875 15.925 6.275ZM22.5 0C10.075 0 0 10.075 0 22.5C0 34.925 10.075 45 22.5 45C34.925 45 45 34.925 45 22.5C45 21.35 44.9 20.2 44.75 19.1C42.3 22.525 38.3 24.75 33.75 24.75C26.3 24.75 20.25 18.7 20.25 11.25C20.25 6.725 22.475 2.7 25.9 0.25C24.8 0.0999998 23.65 0 22.5 0Z" fill="black"/>
</svg>
