<svg width="45" height="58" viewBox="0 0 45 58" fill="none" xmlns="http://www.w3.org/2000/svg">
<path d="M43.5475 30.6915C39.1309 19.1547 23.4054 18.5326 27.2032 1.76459C27.4845 0.52042 26.1623 -0.440983 25.0933 0.209379C14.8816 6.26057 7.53924 18.3912 13.7 34.2826C14.2064 35.5834 12.6873 36.7993 11.5902 35.951C6.49837 32.0771 5.96388 26.5066 6.41398 22.5196C6.58277 21.0492 4.66983 20.3423 3.85401 21.5582C1.94107 24.499 0 29.2494 0 36.4034C1.069 52.2383 14.3752 57.1018 19.1575 57.7239C25.9935 58.6005 33.3921 57.3281 38.7089 52.4362C44.5603 46.9788 46.6983 38.2696 43.5475 30.6915ZM17.4415 44.9146C21.4925 43.925 23.5742 40.9842 24.1368 38.3828C25.0652 34.3392 21.4362 30.3805 23.8836 23.99C24.812 29.2777 33.0826 32.5861 33.0826 38.3545C33.3077 45.5085 25.5997 51.6445 17.4415 44.9146Z" fill="black"/>
</svg>
