<svg width="45" height="45" viewBox="0 0 45 45" fill="none" xmlns="http://www.w3.org/2000/svg">
<path d="M22.5 14.3182C17.9795 14.3182 14.3182 17.9795 14.3182 22.5C14.3182 27.0205 17.9795 30.6818 22.5 30.6818C27.0205 30.6818 30.6818 27.0205 30.6818 22.5C30.6818 17.9795 27.0205 14.3182 22.5 14.3182ZM40.7864 20.4545C39.8455 11.925 33.075 5.15455 24.5455 4.21364V0H20.4545V4.21364C11.925 5.15455 5.15455 11.925 4.21364 20.4545H0V24.5455H4.21364C5.15455 33.075 11.925 39.8455 20.4545 40.7864V45H24.5455V40.7864C33.075 39.8455 39.8455 33.075 40.7864 24.5455H45V20.4545H40.7864ZM22.5 36.8182C14.5841 36.8182 8.18182 30.4159 8.18182 22.5C8.18182 14.5841 14.5841 8.18182 22.5 8.18182C30.4159 8.18182 36.8182 14.5841 36.8182 22.5C36.8182 30.4159 30.4159 36.8182 22.5 36.8182Z" fill="black"/>
</svg>
