<svg width="45" height="47" viewBox="0 0 45 47" fill="none" xmlns="http://www.w3.org/2000/svg">
<path d="M39.6916 25.3981C39.7841 24.6579 39.8535 23.9177 39.8535 23.1312C39.8535 22.3447 39.7841 21.6045 39.6916 20.8643L44.5723 17.0477C45.0118 16.7007 45.1274 16.0762 44.8498 15.5673L40.2236 7.5639C40.0154 7.1938 39.6222 6.98562 39.2058 6.98562C39.067 6.98562 38.9283 7.00875 38.8126 7.05502L33.0529 9.36814C31.8501 8.44289 30.5548 7.67956 29.1438 7.10128L28.2648 0.971511C28.1954 0.416362 27.7096 0 27.1313 0H17.8789C17.3006 0 16.8148 0.416362 16.7454 0.971511L15.8665 7.10128C14.4555 7.67956 13.1601 8.46602 11.9573 9.36814L6.19761 7.05502C6.05883 7.00875 5.92004 6.98562 5.78125 6.98562C5.38802 6.98562 4.99479 7.1938 4.78661 7.5639L0.160372 15.5673C-0.140333 16.0762 -0.00154586 16.7007 0.437947 17.0477L5.31863 20.8643C5.22611 21.6045 5.15671 22.3679 5.15671 23.1312C5.15671 23.8945 5.22611 24.6579 5.31863 25.3981L0.437947 29.2147C-0.00154586 29.5617 -0.117202 30.1862 0.160372 30.6951L4.78661 38.6985C4.99479 39.0686 5.38802 39.2768 5.80439 39.2768C5.94317 39.2768 6.08196 39.2536 6.19761 39.2074L11.9573 36.8943C13.1601 37.8195 14.4555 38.5828 15.8665 39.1611L16.7454 45.2909C16.8148 45.846 17.3006 46.2624 17.8789 46.2624H27.1313C27.7096 46.2624 28.1954 45.846 28.2648 45.2909L29.1438 39.1611C30.5548 38.5828 31.8501 37.7964 33.0529 36.8943L38.8126 39.2074C38.9514 39.2536 39.0902 39.2768 39.229 39.2768C39.6222 39.2768 40.0154 39.0686 40.2236 38.6985L44.8498 30.6951C45.1274 30.1862 45.0118 29.5617 44.5723 29.2147L39.6916 25.3981ZM35.1116 21.4426C35.2041 22.1597 35.2273 22.6454 35.2273 23.1312C35.2273 23.617 35.181 24.1258 35.1116 24.8198L34.7878 27.4336L36.8465 29.0528L39.3446 30.9958L37.7254 33.7947L34.7878 32.615L32.3821 31.6435L30.3003 33.2164C29.3057 33.9566 28.3573 34.5117 27.4089 34.905L24.957 35.8996L24.5869 38.5134L24.1243 41.6362H20.8859L20.4464 38.5134L20.0763 35.8996L17.6244 34.905C16.6298 34.4886 15.7045 33.9566 14.7793 33.2627L12.6743 31.6435L10.2224 32.6381L7.28478 33.8178L5.6656 31.0189L8.16377 29.0759L10.2224 27.4567L9.89861 24.8429C9.82921 24.1258 9.78295 23.5938 9.78295 23.1312C9.78295 22.6686 9.82921 22.1366 9.89861 21.4426L10.2224 18.8288L8.16377 17.2096L5.6656 15.2666L7.28478 12.4677L10.2224 13.6474L12.6281 14.6189L14.7099 13.046C15.7045 12.3058 16.6529 11.7506 17.6013 11.3574L20.0532 10.3628L20.4233 7.74895L20.8859 4.62624H24.1012L24.5407 7.74895L24.9108 10.3628L27.3627 11.3574C28.3573 11.7738 29.2825 12.3058 30.2078 12.9997L32.3127 14.6189L34.7646 13.6243L37.7023 12.4446L39.3215 15.2435L36.8465 17.2096L34.7878 18.8288L35.1116 21.4426ZM22.5051 13.8787C17.3931 13.8787 13.2526 18.0192 13.2526 23.1312C13.2526 28.2432 17.3931 32.3837 22.5051 32.3837C27.6171 32.3837 31.7576 28.2432 31.7576 23.1312C31.7576 18.0192 27.6171 13.8787 22.5051 13.8787ZM22.5051 27.7574C19.9607 27.7574 17.8789 25.6756 17.8789 23.1312C17.8789 20.5868 19.9607 18.505 22.5051 18.505C25.0495 18.505 27.1313 20.5868 27.1313 23.1312C27.1313 25.6756 25.0495 27.7574 22.5051 27.7574Z" fill="black"/>
</svg>
