<svg width="45" height="44" viewBox="0 0 45 44" fill="none" xmlns="http://www.w3.org/2000/svg">
<path d="M30.7317 4.39024C30.7317 1.95366 32.6854 0 35.122 0C37.5585 0 39.5122 1.95366 39.5122 4.39024C39.5122 6.82683 37.5585 8.78049 35.122 8.78049C32.6854 8.78049 30.7317 6.82683 30.7317 4.39024ZM39.5122 43.9024V30.7317H45L39.4244 13.9829C38.8098 12.1829 37.1415 10.9756 35.2537 10.9756H34.9902C33.1024 10.9756 31.4122 12.1829 30.8195 13.9829L28.9317 19.6463C31.3024 20.9634 32.9268 23.4439 32.9268 26.3415V43.9024H39.5122ZM23.0488 20.8537C24.8707 20.8537 26.3415 19.3829 26.3415 17.561C26.3415 15.739 24.8707 14.2683 23.0488 14.2683C21.2268 14.2683 19.7561 15.739 19.7561 17.561C19.7561 19.3829 21.2268 20.8537 23.0488 20.8537ZM7.68293 8.78049C10.1195 8.78049 12.0732 6.82683 12.0732 4.39024C12.0732 1.95366 10.1195 0 7.68293 0C5.24634 0 3.29268 1.95366 3.29268 4.39024C3.29268 6.82683 5.24634 8.78049 7.68293 8.78049ZM12.0732 43.9024V28.5366H15.3659V15.3659C15.3659 12.9512 13.3902 10.9756 10.9756 10.9756H4.39024C1.97561 10.9756 0 12.9512 0 15.3659V28.5366H3.29268V43.9024H12.0732ZM26.3415 43.9024V35.122H28.5366V26.3415C28.5366 24.5415 27.0439 23.0488 25.2439 23.0488H20.8537C19.0537 23.0488 17.561 24.5415 17.561 26.3415V35.122H19.7561V43.9024H26.3415Z" fill="black"/>
</svg>
