<svg width="45" height="45" viewBox="0 0 45 45" fill="none" xmlns="http://www.w3.org/2000/svg">
<path d="M32.1612 28.3019H30.1286L29.4082 27.6072C31.9297 24.6741 33.4477 20.8662 33.4477 16.7238C33.4477 7.48714 25.9605 0 16.7238 0C7.48714 0 0 7.48714 0 16.7238C0 25.9605 7.48714 33.4477 16.7238 33.4477C20.8662 33.4477 24.6741 31.9297 27.6072 29.4082L28.3019 30.1286V32.1612L41.1664 45L45 41.1664L32.1612 28.3019ZM16.7238 28.3019C10.3173 28.3019 5.1458 23.1304 5.1458 16.7238C5.1458 10.3173 10.3173 5.1458 16.7238 5.1458C23.1304 5.1458 28.3019 10.3173 28.3019 16.7238C28.3019 23.1304 23.1304 28.3019 16.7238 28.3019Z" fill="black"/>
</svg>
