<svg width="45" height="37" viewBox="0 0 45 37" fill="none" xmlns="http://www.w3.org/2000/svg">
<path d="M12.2727 16.3636V20.4545H32.7273V16.3636C32.7273 12.5591 35.3454 9.38864 38.8636 8.46818V6.13636C38.8636 2.76136 36.1023 0 32.7273 0H12.2727C8.89772 0 6.13635 2.76136 6.13635 6.13636V8.46818C9.65453 9.38864 12.2727 12.5591 12.2727 16.3636Z" fill="black"/>
<path d="M40.9091 12.2727C38.6591 12.2727 36.8182 14.1136 36.8182 16.3636V24.5455H8.18182V16.3636C8.18182 14.1136 6.34091 12.2727 4.09091 12.2727C1.84091 12.2727 0 14.1136 0 16.3636V26.5909C0 29.9659 2.76136 32.7273 6.13636 32.7273V34.7727C6.13636 35.8977 7.05682 36.8182 8.18182 36.8182C9.30682 36.8182 10.2273 35.8977 10.2273 34.7727V32.7273H34.7727V34.7727C34.7727 35.8977 35.6932 36.8182 36.8182 36.8182C37.9432 36.8182 38.8636 35.8977 38.8636 34.7727V32.7273C42.2386 32.7273 45 29.9659 45 26.5909V16.3636C45 14.1136 43.1591 12.2727 40.9091 12.2727Z" fill="black"/>
</svg>
